<?xml version="1.0" encoding="UTF-8" standalone="no"?>
<svg width="141px" height="125px" viewBox="0 0 141 125" version="1.1" xmlns="http://www.w3.org/2000/svg" xmlns:xlink="http://www.w3.org/1999/xlink" xmlns:sketch="http://www.bohemiancoding.com/sketch/ns">
    <!-- Generator: Sketch 3.3.3 (12072) - http://www.bohemiancoding.com/sketch -->
    <title>drop_files</title>
    <desc>Created with Sketch.</desc>
    <defs>
        <path d="M51,0 L0,0 L0,98 L78,98 L78,27 L51,27 L51,-4.99600361e-16 Z" id="path-1"></path>
        <path d="M45,17.5 L45,0 L0,0 L0,18 L13,18 L13,70 L45,70 L45,17.5 Z" id="path-3"></path>
    </defs>
    <g id="Page-2" stroke="none" stroke-width="1" fill="none" fill-rule="evenodd" sketch:type="MSPage">
        <g id="Rectangle-33-+-Rectangle-33-Copy-3-+-Rectangle-4-Copy-3-+-Rectangle-5-Copy-+-Imported-Layers-+-Stroke-16-Copy-Copy-Copy" sketch:type="MSLayerGroup" transform="translate(0.000000, -3.000000)">
            <g id="Rectangle-33-+-Rectangle-33-Copy-3" transform="translate(0.000000, 28.000000)" sketch:type="MSShapeGroup">
                <rect id="Rectangle-33" fill="#48F8C5" transform="translate(44.000000, 50.000000) rotate(-15.000000) translate(-44.000000, -50.000000) " x="10" y="8" width="68" height="84"></rect>
                <g id="Group" transform="translate(39.853553, 45.887628) rotate(-15.000000) translate(-39.853553, -45.887628) translate(16.853553, 22.887628)" fill="#37C597">
                    <path d="M3.25881905,6.03407417 C4.91567329,6.03407417 6.25881905,4.69092842 6.25881905,3.03407417 C6.25881905,1.37721992 4.91567329,0.0340741737 3.25881905,0.0340741737 C1.6019648,0.0340741737 0.258819045,1.37721992 0.258819045,3.03407417 C0.258819045,4.69092842 1.6019648,6.03407417 3.25881905,6.03407417 Z M9.25881905,0.0340741737 L45.258819,0.0340741737 L45.258819,6.03407417 L9.25881905,6.03407417 L9.25881905,0.0340741737 Z" id="Oval-4"></path>
                    <path d="M3.25881905,19.0340742 C4.91567329,19.0340742 6.25881905,17.6909284 6.25881905,16.0340742 C6.25881905,14.3772199 4.91567329,13.0340742 3.25881905,13.0340742 C1.6019648,13.0340742 0.258819045,14.3772199 0.258819045,16.0340742 C0.258819045,17.6909284 1.6019648,19.0340742 3.25881905,19.0340742 Z M9.25881905,13.0340742 L45.258819,13.0340742 L45.258819,19.0340742 L9.25881905,19.0340742 L9.25881905,13.0340742 Z" id="Oval-4-Copy"></path>
                    <path d="M3.25881905,32.0340742 C4.91567329,32.0340742 6.25881905,30.6909284 6.25881905,29.0340742 C6.25881905,27.3772199 4.91567329,26.0340742 3.25881905,26.0340742 C1.6019648,26.0340742 0.258819045,27.3772199 0.258819045,29.0340742 C0.258819045,30.6909284 1.6019648,32.0340742 3.25881905,32.0340742 Z M9.25881905,26.0340742 L45.258819,26.0340742 L45.258819,32.0340742 L9.25881905,32.0340742 L9.25881905,26.0340742 Z" id="Oval-4-Copy-2"></path>
                    <path d="M3.25881905,45.0340742 C4.91567329,45.0340742 6.25881905,43.6909284 6.25881905,42.0340742 C6.25881905,40.3772199 4.91567329,39.0340742 3.25881905,39.0340742 C1.6019648,39.0340742 0.258819045,40.3772199 0.258819045,42.0340742 C0.258819045,43.6909284 1.6019648,45.0340742 3.25881905,45.0340742 Z M9.25881905,39.0340742 L45.258819,39.0340742 L45.258819,45.0340742 L9.25881905,45.0340742 L9.25881905,39.0340742 Z" id="Oval-4-Copy-3"></path>
                </g>
                <rect id="Rectangle-33-Copy-2" fill="#FFD200" transform="translate(97.000000, 50.000000) rotate(-345.000000) translate(-97.000000, -50.000000) " x="63" y="8" width="68" height="84"></rect>
                <circle id="Oval-8" fill="#FD9A00" cx="114" cy="38" r="14"></circle>
                <circle id="Oval-8-Copy" fill="#FFF8E5" cx="112" cy="65" r="8"></circle>
            </g>
            <g id="Rectangle-4-Copy-3-+-Rectangle-5-Copy-+-Imported-Layers-+-Stroke-16-Copy-Copy" transform="translate(32.000000, 0.000000)">
                <g id="Rectangle-4-Copy-3-+-Rectangle-5-Copy" transform="translate(0.000000, 18.000000)">
                    <g id="Mask-+-Rectangle-39">
                        <mask id="mask-2" sketch:name="Mask" fill="white">
                            <use xlink:href="#path-1"></use>
                        </mask>
                        <use id="Mask" fill="#02CEFF" sketch:type="MSShapeGroup" xlink:href="#path-1"></use>
                    </g>
                    <path d="M51,0 L77.9565538,26.9565538 L51,26.9565538 L51,0 Z" id="Rectangle-5-Copy-3" fill="#1AAFD0" sketch:type="MSShapeGroup"></path>
                </g>
                <g id="Imported-Layers" transform="translate(10.000000, 79.000000)" sketch:type="MSShapeGroup">
                    <g id="Fill-1-+-Fill-2">
                        <path d="M19.1573,0.6825 L0.649,25.055875 L42.357575,25.055875 L19.1573,0.6825" id="Fill-1" fill="#179DBA"></path>
                        <path d="M45.9846,10.271625 L23.861075,25.055875 L58.3156,25.055875 L45.9846,10.271625" id="Fill-2" fill="#1AAFD0"></path>
                    </g>
                </g>
                <g id="Rectangle-48-+-Stroke-16-Copy" transform="translate(1.000000, 0.000000)">
                    <mask id="mask-4" sketch:name="Mask" fill="white">
                        <use xlink:href="#path-3"></use>
                    </mask>
                    <use id="Mask" sketch:type="MSShapeGroup" xlink:href="#path-3"></use>
                    <path d="M27.98464,50.9719512 L27.8938386,21.8737356 C27.8839897,18.9022689 25.4671808,16.5010739 22.495714,16.5109228 L21.8428081,16.5130847 C18.8713413,16.5226934 16.4701464,18.9395023 16.4799952,21.9109691 L16.5991421,58.476825 C16.6159572,63.6770119 20.845433,67.8788629 26.0456199,67.8620478 L28.6147255,67.8536402 C33.8149124,67.8365849 38.0170036,63.6071092 37.9999483,58.4069223 L37.8750362,20.081247 C37.8483722,11.9093531 31.2023278,5.30630723 23.0304339,5.33297116 L20.759676,5.34041784 C12.5877822,5.36708177 5.98497649,12.0131262 6.0114002,20.1850201" id="Stroke-16-Copy" stroke="#179DBA" stroke-width="4" sketch:type="MSShapeGroup" mask="url(#mask-4)"></path>
                </g>
            </g>
        </g>
    </g>
</svg>